<svg height="512" viewBox="0 0 64 64" width="512" xmlns="http://www.w3.org/2000/svg"><g id="Twotone"><g id="color_copy" data-name="color copy"><g><path d="m34.866 18.624.307-.082a4.99 4.99 0 0 1 -.869-6.088l4.469-7.74-2.973-1.714-12 20.785 9.526 5.5-.726-2.732 2.732-.733-1.6-3.232 2.732-.732z" fill="#cff09e"/><g><path d="m13.069 41.413a6 6 0 0 1 -2.605 7.319l-1.678.968 2.482 4.3a2 2 0 0 0 2.732.732l6.929-4a2 2 0 0 0 .732-2.732l-4-6.929a2 2 0 0 0 -2.732-.732z" fill="#cff09e"/><circle cx="14.464" cy="47.536" fill="#79bd9a" r="2"/></g><path d="m3.66 31.464h20v8h-20z" fill="#79bd9a" transform="matrix(.866 .5 -.5 .866 19.562 -2.079)"/><g><path d="m8.778 13.346h4v6h-4z" fill="#cff09e" transform="matrix(.707 -.707 .707 .707 -8.401 12.409)"/><path d="m24.042 11.295h6v20h-6z" fill="#79bd9a" transform="matrix(.707 -.707 .707 .707 -7.138 25.359)"/><g fill="#cff09e"><path d="m18.556 11.639a4 4 0 0 1 -5.657 0l-2.242-2.239-2 2 7.071 7.071 7.778-7.778-2-2z"/><path d="m7.95 20-3.95-3.947-1 1 7.071 7.071 2.829-2.824-1.03-1.034a2.991 2.991 0 0 1 -3.92-.266z"/><path d="m24.877 3.336a6.949 6.949 0 0 0 -1.832 1.854 1.778 1.778 0 0 1 -2.751.287l-1.329-1.329a6.892 6.892 0 0 0 -1.116.884l4.243 4.243.017-.065a6.937 6.937 0 0 1 4.868-4.867l.065-.018-1.185-.592a6.959 6.959 0 0 0 -.98-.397z"/></g></g><g fill="#cff09e"><path d="m47.347 17.653a7.959 7.959 0 0 1 -1.707-2.536l-2.879 2.883a7.845 7.845 0 0 0 .586.657 7.962 7.962 0 0 0 4.934 2.309l1.6-1.6a7.959 7.959 0 0 1 -2.534-1.713z"/><path d="m59.66 13.653a7.994 7.994 0 0 1 -13.65-5.53 7.993 7.993 0 1 0 14.97 3.763 7.922 7.922 0 0 1 -1.32 1.767z"/></g><path d="m59 44v-10h-4.719a17.9 17.9 0 0 0 -1.52-3.69l3.331-3.331-7.071-7.071-3.331 3.331a17.918 17.918 0 0 0 -3.69-1.52v-4.719h-10v4.719a17.918 17.918 0 0 0 -3.69 1.52l-3.331-3.331-7.071 7.071 3.331 3.331a17.9 17.9 0 0 0 -1.52 3.69h-4.719v10h4.719a17.918 17.918 0 0 0 1.52 3.69l-3.331 3.331 7.071 7.071 3.331-3.331a17.918 17.918 0 0 0 3.69 1.52v4.719h10v-4.719a17.918 17.918 0 0 0 3.69-1.52l3.331 3.331 7.071-7.071-3.331-3.331a17.918 17.918 0 0 0 1.52-3.69zm-22 4a9 9 0 1 1 9-9 9 9 0 0 1 -9 9z" fill="#a8dba8"/></g></g><g id="Stroke_Close_copy" data-name="Stroke Close copy"><g fill="#3b8686"><path d="m37 29a10 10 0 1 0 10 10 10.011 10.011 0 0 0 -10-10zm0 18a8 8 0 1 1 8-8 8.009 8.009 0 0 1 -8 8z"/><path d="m59 33h-3.981a19.028 19.028 0 0 0 -1.031-2.5l2.811-2.81a1 1 0 0 0 0-1.415l-5.433-5.435a9.1 9.1 0 0 0 1.634.152 8.992 8.992 0 0 0 8.287-12.506 1 1 0 0 0 -1.628-.317l-5.241 5.242-2.829-2.829 5.242-5.241a1 1 0 0 0 -.317-1.628 8.988 8.988 0 0 0 -12.031 11.148l-1.637 1.639a.987.987 0 0 0 -.846-.5h-4.222l-.341-.689 1.554-.417a1 1 0 0 0 .707-1.225l-.473-1.769 1.766-.473a1 1 0 0 0 .739-.907l.27-4.46a1 1 0 0 0 -.5-.926l-5.2-3a1 1 0 0 0 -1.367.366l-7.7 13.336-3.728-3.736.708-.707a1 1 0 0 0 0-1.415l-.977-.976a5.951 5.951 0 0 1 4-3.7l.066-.018a1 1 0 0 0 .187-1.86l-1.189-.586a7.912 7.912 0 0 0 -8.4.836l-.763-.763a1 1 0 0 0 -1.414 0l-7.773 7.777a1 1 0 0 0 0 1.415l.708.707-1.416 1.415-.707-.707a1 1 0 0 0 -1.414 0l-2.828 2.828a1 1 0 0 0 0 1.414l7.071 7.071a1 1 0 0 0 1.414 0l2.828-2.831a1 1 0 0 0 0-1.414l-.707-.708 1.415-1.414.707.707a1 1 0 0 0 1.414 0l1.414-1.415 3.933 3.933-4.582 4.583a1 1 0 0 0 0 1.415l2.811 2.81a18.881 18.881 0 0 0 -.958 2.308l-11.553-6.671a1 1 0 0 0 -1.366.366l-4 6.928a1 1 0 0 0 .366 1.366l9.945 5.742-5.151 2.974a3 3 0 0 0 -1.1 4.1l4 6.929a3 3 0 0 0 .657.775l-5.351 3.086a1 1 0 0 0 -.366 1.367l1 1.732a1 1 0 1 0 1.732-1l-.5-.866 7.634-4.408 3.612-2.085 5.66 5.66a1 1 0 0 0 1.415 0l2.81-2.811a19.028 19.028 0 0 0 2.503 1.03v3.981a1 1 0 0 0 1 1h10a1 1 0 0 0 1-1v-3.981a19.028 19.028 0 0 0 2.5-1.031l2.81 2.811a1 1 0 0 0 1.415 0l7.075-7.071a1 1 0 0 0 0-1.415l-2.812-2.813a19.028 19.028 0 0 0 1.031-2.5h3.981a1 1 0 0 0 1-1v-10a1 1 0 0 0 -1-1zm-34.387-28.7a8.026 8.026 0 0 0 -2.9 3.184l-2.391-2.39a5.927 5.927 0 0 1 5.291-.794zm-14.542 18.41-5.657-5.657 1.414-1.414 5.657 5.661zm1.414-4.243-2.829-2.828 1.416-1.415 2.828 2.829zm4.243-1.414-5.657-5.653 6.364-6.364 5.657 5.656zm32.326-10.006a6.965 6.965 0 0 1 6.182-1.941l-4.768 4.769a1 1 0 0 0 0 1.414l4.243 4.243a1.029 1.029 0 0 0 1.414 0l4.769-4.768a7 7 0 1 1 -11.84-3.717zm-1.414 11.313a8.939 8.939 0 0 0 1.383 1.132l-2.52 2.52a19.028 19.028 0 0 0 -2.503-1.031v-1.809l2.389-2.39a8.934 8.934 0 0 0 1.251 1.578zm-10.47-13.994 3.8 2.191-.188 3.128-2.036.545a1 1 0 0 0 -.707 1.225l.474 1.766-1.767.473a1 1 0 0 0 -.646 1.406l.443.9h-3.543a1 1 0 0 0 -1 1v2.6l-2.3-2.3zm-16.906 11.98 2.828-2.828 7.855 7.854c-.494.2-.98.406-1.45.64l-2.81-2.812a1 1 0 0 0 -1.415 0l-1.072 1.078zm-4.747 30.259a1 1 0 0 1 .242 1.833 1.017 1.017 0 0 1 -.76.1 1 1 0 0 1 .258-1.967 1.049 1.049 0 0 1 .26.034zm-7.151-18.239 1.732 1-1.5 2.6a1 1 0 1 0 1.732 1l1.5-2.6 1.732 1-1.5 2.6a1 1 0 1 0 1.732 1l1.5-2.6 1.1.634h-.394a1 1 0 0 0 -1 1v5.124l-9.634-5.562zm.563 18.24a1 1 0 0 1 .365-1.364l5.706-3.294v2.052a.976.976 0 0 0 .21.584 2.994 2.994 0 0 0 -.729 5.886 3.038 3.038 0 0 0 .782.1 2.989 2.989 0 0 0 1.516-5.57h3.2a19.028 19.028 0 0 0 1.031 2.5l-2.81 2.813a.994.994 0 0 0 -.039 1.356l-3.868 2.231a1 1 0 0 1 -.758.1.987.987 0 0 1 -.606-.466zm50.071-3.606h-3.719a1 1 0 0 0 -.961.723 16.93 16.93 0 0 1 -1.434 3.483 1 1 0 0 0 .168 1.19l2.624 2.625-5.657 5.657-2.621-2.624a1 1 0 0 0 -1.19-.168 16.93 16.93 0 0 1 -3.483 1.434 1 1 0 0 0 -.723.961v3.719h-8.004v-3.719a1 1 0 0 0 -.723-.961 16.93 16.93 0 0 1 -3.483-1.434 1 1 0 0 0 -1.19.168l-2.625 2.624-5.657-5.657 2.624-2.621a1 1 0 0 0 .168-1.19 16.93 16.93 0 0 1 -1.434-3.483 1 1 0 0 0 -.961-.727h-3.719v-8h3.719a1 1 0 0 0 .961-.723 16.93 16.93 0 0 1 1.434-3.483 1 1 0 0 0 -.168-1.19l-2.624-2.625 5.657-5.657 2.621 2.624a1 1 0 0 0 1.19.168 16.93 16.93 0 0 1 3.483-1.434 1 1 0 0 0 .727-.961v-3.719h8v3.719a1 1 0 0 0 .723.961 16.93 16.93 0 0 1 3.483 1.434 1 1 0 0 0 1.19-.168l2.625-2.624 5.657 5.657-2.624 2.621a1 1 0 0 0 -.168 1.19 16.93 16.93 0 0 1 1.434 3.483 1 1 0 0 0 .961.723h3.719z"/></g></g></g></svg>